<svg aria-hidden="true" style="width:0;height:0;position:absolute;overflow:hidden" xmlns="http://www.w3.org/2000/svg"><defs><symbol id="icon-arrow" viewBox="0 0 32 32"><path d="M16 21.985a5.985 5.985 0 1 1 0-11.97 5.985 5.985 0 0 1 0 11.97zm0-11.319c-2.93 0-5.334 2.404-5.334 5.334S13.07 21.334 16 21.334 21.334 18.93 21.334 16 18.93 10.666 16 10.666z"/><path d="m15.873 19.43-.451-.476 2.93-2.955-2.93-2.955.451-.476 3.43 3.43-3.43 3.43z"/><path d="M18.83 16.351h-6.01v-.701h6.01z"/></symbol><symbol id="icon-cust-points" viewBox="0 0 256 32"><path d="M144 16c0 8.837-7.163 16-16 16s-16-7.163-16-16 7.163-16 16-16 16 7.163 16 16zM32 16c0 8.837-7.163 16-16 16S0 24.837 0 16 7.163 0 16 0s16 7.163 16 16zM256 16c0 8.837-7.163 16-16 16s-16-7.163-16-16 7.163-16 16-16 16 7.163 16 16z"/></symbol><symbol id="icon-cust-quotes" viewBox="0 0 49 32"><path d="M35.781 0c2.155 0 4.191.52 6.107 1.561s3.472 2.537 4.67 4.488c1.15 1.951 1.725 4.25 1.725 6.894s-.718 5.225-2.155 7.74c-.48.91-1.342 2.081-2.587 3.512a66.3 66.3 0 0 1-3.592 3.707L35.423 32l-3.234-4.813a24.187 24.187 0 0 0 5.95-4.668l.014-.015c1.724-1.821 2.586-3.49 2.586-5.008 0-.781-.192-1.41-.575-1.886-1.676 1.084-3.544 1.626-5.604 1.626-1.485 0-2.898-.412-4.239-1.236-1.389-.781-2.49-1.821-3.305-3.122-.862-1.258-1.294-2.558-1.294-3.902 0-1.518.503-2.97 1.509-4.358.958-1.387 2.227-2.514 3.808-3.382C32.572.412 34.153 0 35.781 0zM9.987 0c2.155 0 4.191.52 6.107 1.561s3.472 2.536 4.67 4.488c1.15 1.951 1.725 4.25 1.725 6.894 0 1.864-.264 3.534-.79 5.008-.527 1.518-1.437 3.1-2.73 4.748-1.246 1.561-2.419 2.862-3.52 3.902-1.102 1.084-3.018 2.883-5.749 5.398l-3.233-4.813a24.182 24.182 0 0 0 5.949-4.668l.014-.015c1.725-1.821 2.586-3.49 2.586-5.008 0-.781-.191-1.41-.574-1.886-1.677 1.084-3.544 1.626-5.604 1.626-1.485 0-2.898-.412-4.24-1.236-1.388-.781-2.49-1.821-3.304-3.122C.432 11.619 0 10.319 0 8.975c0-1.518.479-2.97 1.437-4.358s2.227-2.514 3.808-3.382C6.778.411 8.359-.001 9.987-.001z"/></symbol><symbol id="icon-footer-facebook" viewBox="0 0 16 32"><path d="M14.143 15.971H10.11v14.865H3.998V15.971H1.092v-5.222h2.906V7.367c0-2.417 1.142-6.204 6.167-6.204l4.527.019v5.072h-3.284c-.538 0-1.297.272-1.297 1.425v3.073h4.567l-.534 5.219z"/></symbol><symbol id="icon-footer-github" viewBox="0 0 32 32"><path d="M16 0C7.211 0 0 7.211 0 16c0 7.499 5.262 14.312 12.25 16v-5.293a3.921 3.921 0 0 1-2.062-.06l.028.007c-.946-.278-1.714-.909-2.285-1.869-.363-.613-1.008-1.28-1.68-1.23l-.165-1.867c1.454-.125 2.71.886 3.456 2.139.333.558.715.885 1.205 1.029.472.141.981.074 1.573-.136.149-1.186.693-1.629 1.104-2.256-4.168-.621-5.829-2.832-6.488-4.576-.874-2.318-.405-5.213 1.139-7.043.03-.035.085-.128.064-.192-.709-2.141.154-3.91.186-4.098.818.24.95-.243 3.552 1.336l.448.27c.189.112.128.048.317.032a13.246 13.246 0 0 1 3.349-.469h.01c1.136.014 2.272.176 3.403.483l.146.016c-.013-.003.04-.01.128-.062 3.248-1.968 3.131-1.325 4.003-1.608.032.189.882 1.987.182 4.099-.096.291 2.816 2.957 1.202 7.235-.659 1.744-2.32 3.957-6.486 4.578.534.816 1.176 1.248 1.173 2.928v6.606c6.986-1.688 12.25-8.501 12.25-16 0-8.789-7.211-16-16-16z"/></symbol><symbol id="icon-footer-telegram" viewBox="0 0 44 32"><path d="m17.342 21.048-.674 8.86c.966 0 1.384-.388 1.886-.852l4.526-4.04 9.38 6.414c1.72.894 2.934.422 3.398-1.478L42.016 3.02c.548-2.374-.92-3.302-2.594-2.72L3.228 13.234c-2.47.896-2.434 2.18-.42 2.766l9.252 2.684L33.554 6.132c1.012-.626 1.932-.28 1.176.346l-17.39 14.57z"/></symbol><symbol id="icon-header-arrow-btn" viewBox="0 0 22 32"><path stroke-linejoin="round" stroke-linecap="round" stroke-width="6.4" d="M5.574 3.2 18.454 16 5.574 28.8"/></symbol><symbol id="icon-header-logo" viewBox="0 0 127 32"><path d="M31.36 16.32C31.36 24.98 24.483 32 16 32S.64 24.98.64 16.32 7.517.64 16 .64s15.36 7.02 15.36 15.68z"/><path d="M11.849.561C4.444 2.804 0 8.635 0 16.003c0 6.022 3.091 11.277 8.179 13.904 2.64 1.345 3.027.384.579-1.474-1.738-1.409-2.061-2.05-2.061-4.421 0-1.666-.386-3.011-.966-3.524-1.158-.961-1.288-3.46-.128-4.357.45-.384.901-1.666.965-2.819.323-4.228 4.895-8.201 9.467-8.201s9.144 3.972 9.466 8.201c.064 1.153.515 2.435.966 2.819 1.158.897 1.03 3.396-.129 4.357-.579.513-.966 1.858-.966 3.524 0 2.371-.321 3.012-2.06 4.421-2.705 2.115-1.932 2.883 1.094 1.025 4.251-2.627 7.406-8.33 7.406-13.391 0-10.124-10.561-18.325-19.964-15.506z"/><path d="M12.687 7.994c-1.16.513-2.125 1.154-2.125 1.538 0 .705 3.478 1.987 5.474 1.987s5.474-1.281 5.474-1.987c0-.768-3.993-2.499-5.603-2.499-.644.064-2.125.448-3.22.961zm33.164 3.332c-.966.256-1.158 1.089-1.158 5.702v5.382h4.572l-.193-5.574c-.193-5.83-.451-6.28-3.22-5.51zm7.535.32c-2.125 1.154-2.898 2.563-2.898 5.318 0 3.78 2.061 5.574 5.86 5.318 2.576-.192 2.833-.385 3.027-1.987s.064-1.73-1.932-1.602c-2.061.192-2.125.064-2.125-2.051s.129-2.243 1.997-2.05c1.545.128 2.125-.128 2.382-1.089.129-.641 0-1.538-.387-1.923-.901-.897-4.25-.897-5.924.064zm7.664.064c-.194.513-.258 3.012-.129 5.638l.193 4.742H65.3c3.864 0 4.186-.128 4.379-1.474.193-1.217-.064-1.409-2.06-1.409-1.288 0-2.319-.32-2.319-.641 0-.385.902-.641 1.932-.641 1.481 0 1.932-.256 1.932-1.281s-.451-1.281-1.932-1.281c-1.03 0-1.932-.32-1.932-.641 0-.385.837-.641 1.868-.641 1.804 0 3.027-1.409 2.254-2.627-.58-.961-7.985-.705-8.371.256zm12.943-.192c-2.125.833-2.962 2.307-3.027 4.998-.065 4.613 1.803 6.215 6.633 5.766 1.868-.128 2.189-.448 2.189-1.794 0-1.409-.257-1.602-2.061-1.409-1.546.128-2.125-.064-2.447-1.089-.58-1.987.644-3.588 2.705-3.588 1.224 0 1.868-.384 1.996-1.217.451-2.051-2.833-3.011-5.989-1.666zm7.921-.256c-.323.256-.515 2.883-.515 5.83v5.382l2.06-.192c1.61-.128 2.19-.577 2.512-1.795l.386-1.602.515 1.73c.387 1.474.837 1.795 2.512 1.795 2.769 0 3.091-.449 1.932-2.691-.708-1.41-.837-2.115-.322-2.627.837-.833.902-3.652.129-4.87-.644-1.025-8.371-1.858-9.208-.961zm5.28 3.46c0 .705-.257 1.281-.644 1.281-.322 0-.644-.576-.644-1.281s.322-1.282.644-1.282c.387 0 .644.577.644 1.282zm6.247-3.396c-.258.192-.451 2.819-.451 5.766v5.318h4.186c4.057 0 4.186-.064 4.186-1.602 0-1.346-.322-1.602-1.932-1.602-1.03 0-1.932-.32-1.932-.641 0-.385.708-.641 1.61-.641 1.159 0 1.61-.321 1.61-1.282s-.451-1.281-1.61-1.281c-.902 0-1.61-.32-1.61-.641 0-.384.902-.641 1.932-.641 1.61 0 1.932-.256 1.932-1.602 0-1.538-.193-1.602-3.735-1.602-2.061 0-3.992.192-4.186.448zm13.009-.064c-1.16.32-4.122 8.842-3.542 10.252.515 1.281 3.413 1.153 4.186-.192.579-1.089.644-1.089 1.803 0 1.482 1.281 4.701 1.474 4.701.256 0-.384-.644-2.947-1.482-5.574-1.288-4.228-1.674-4.805-3.027-4.933-.902 0-2.061.064-2.64.192zm1.803 5.83c-.193.641-.322.256-.322-.769 0-1.089.129-1.538.322-1.153.129.448.129 1.345 0 1.922zm7.47-5.766c-.58.192-.837 1.986-.837 5.702v5.382h1.868c1.61 0 1.932-.321 2.189-1.795.257-1.666.257-1.666.772-.32.258.833.902 1.474 1.352 1.474.515 0 1.224-.641 1.546-1.474.515-1.346.58-1.346.58.384.065 1.602.257 1.795 2.061 1.602l1.996-.192.065-5.318c.129-4.933.064-5.318-1.288-5.638-2.061-.512-3.799.705-4.379 3.076l-.451 2.115-.708-2.243c-.902-3.012-2.254-3.78-4.765-2.755zm-106.707.641c-.193.256-.387 1.089-.387 1.922 0 1.474.064 1.474 7.406 1.474 7.341 0 7.405 0 7.405-1.474 0-2.179-.579-2.435-2.64-1.409-2.319 1.217-7.213 1.217-9.531 0-1.03-.513-1.997-.705-2.254-.513zm-1.868 5.702c-1.03 1.089.708 1.538 5.731 1.538h5.409v2.243c0 1.217.322 2.243.644 2.243.386 0 .644-.961.644-2.179 0-2.115.129-2.243 2.576-2.435 1.416-.128 2.576-.512 2.576-.832 0-.705-16.872-1.282-17.581-.577z"/><path d="M8.629 23.308c0 3.524 1.224 4.229 7.406 4.229s7.405-.705 7.405-4.229c0-1.538-.322-2.179-.966-2.179-.579 0-.965.577-.965 1.538 0 3.588-4.895 3.908-5.603.384-.322-1.858-.515-1.922-3.799-1.922H8.629v2.179zm3.993 7.24c.387 2.051 6.955 1.859 6.955-.128 0-.705-.837-.961-3.606-.961-3.027 0-3.542.192-3.348 1.089z"/></symbol><symbol id="icon-header-menu" viewBox="0 0 46 32"><path stroke-width="2.286" d="M0 2.286h45.714M0 16h45.714M0 29.714h45.714"/></symbol><symbol id="icon-menu-close" viewBox="0 0 32 32"><path stroke-width="2" d="m2.52 2 26.96 28M2 29.48 30 2.52"/></symbol><symbol id="icon-prod-points" viewBox="0 0 139 32"><path d="M85.333 16c0 8.837-7.163 16-16 16s-16-7.163-16-16 7.163-16 16-16 16 7.163 16 16zM32 16c0 8.837-7.163 16-16 16S0 24.837 0 16 7.163 0 16 0s16 7.163 16 16zM138.667 16c0 8.837-7.163 16-16 16s-16-7.163-16-16 7.163-16 16-16 16 7.163 16 16z"/></symbol><symbol id="icon-menu" viewBox="0 0 48 32"><path d="M0 5.333V0h48v5.333H0zm0 13.334h48v-5.333H0v5.333zM0 32h48v-5.333H0V32z"/></symbol><symbol id="icon-arrow-common" viewBox="0 0 32 32"><path d="m18.381 16-7.944 7.938a1.493 1.493 0 0 0 0 2.119 1.508 1.508 0 0 0 2.125 0l9-8.994a1.498 1.498 0 0 0 .044-2.069l-9.037-9.056c-.294-.294-.681-.438-1.063-.438s-.769.144-1.063.438a1.493 1.493 0 0 0 0 2.119l7.938 7.944z"/></symbol><symbol id="icon-close" viewBox="0 0 32 32"><path d="M31.439 3.166 28.273 0 15.72 12.553 3.167 0 .001 3.166l12.553 12.553L.001 28.272l3.166 3.166L15.72 18.885l12.553 12.553 3.166-3.166-12.553-12.553L31.439 3.166z"/></symbol><symbol id="icon-arrow-products" viewBox="0 0 32 32"><path d="m19.414 27.414 10-10a2 2 0 0 0 0-2.828l-10-10a2 2 0 1 0-2.828 2.828L23.172 14H4a2 2 0 1 0 0 4h19.172l-6.586 6.586c-.39.39-.586.902-.586 1.414s.195 1.024.586 1.414a2 2 0 0 0 2.828 0z"/></symbol><symbol id="instagram" viewBox="0 0 32 32"><path d="M16 2.881c4.275 0 4.781.019 6.462.094 1.563.069 2.406.331 2.969.55a4.952 4.952 0 0 1 1.837 1.194 5.015 5.015 0 0 1 1.2 1.838c.219.563.481 1.412.55 2.969.075 1.688.094 2.194.094 6.463s-.019 4.781-.094 6.463c-.069 1.563-.331 2.406-.55 2.969a4.94 4.94 0 0 1-1.194 1.837 5.02 5.02 0 0 1-1.837 1.2c-.563.219-1.413.481-2.969.55-1.688.075-2.194.094-6.463.094s-4.781-.019-6.463-.094c-1.563-.069-2.406-.331-2.969-.55a4.952 4.952 0 0 1-1.838-1.194 5.02 5.02 0 0 1-1.2-1.837c-.219-.563-.481-1.413-.55-2.969-.075-1.688-.094-2.194-.094-6.463s.019-4.781.094-6.463c.069-1.563.331-2.406.55-2.969a4.964 4.964 0 0 1 1.194-1.838 5.015 5.015 0 0 1 1.838-1.2c.563-.219 1.412-.481 2.969-.55 1.681-.075 2.188-.094 6.463-.094zM16 0c-4.344 0-4.887.019-6.594.094-1.7.075-2.869.35-3.881.744-1.056.412-1.95.956-2.837 1.85a7.833 7.833 0 0 0-1.85 2.831C.444 6.538.169 7.7.094 9.4.019 11.113 0 11.656 0 16s.019 4.887.094 6.594c.075 1.7.35 2.869.744 3.881.413 1.056.956 1.95 1.85 2.837a7.82 7.82 0 0 0 2.831 1.844c1.019.394 2.181.669 3.881.744 1.706.075 2.25.094 6.594.094s4.888-.019 6.594-.094c1.7-.075 2.869-.35 3.881-.744 1.05-.406 1.944-.956 2.831-1.844s1.438-1.781 1.844-2.831c.394-1.019.669-2.181.744-3.881.075-1.706.094-2.25.094-6.594s-.019-4.887-.094-6.594c-.075-1.7-.35-2.869-.744-3.881a7.506 7.506 0 0 0-1.831-2.844A7.82 7.82 0 0 0 26.482.843C25.463.449 24.301.174 22.601.099c-1.712-.081-2.256-.1-6.6-.1z"/><path d="M16 7.781c-4.537 0-8.219 3.681-8.219 8.219s3.681 8.219 8.219 8.219 8.219-3.681 8.219-8.219A8.221 8.221 0 0 0 16 7.781zm0 13.55a5.331 5.331 0 1 1 0-10.663 5.331 5.331 0 0 1 0 10.663zM26.462 7.456a1.919 1.919 0 1 1-3.838 0 1.919 1.919 0 0 1 3.838 0z"/></symbol><symbol id="linkedin" viewBox="0 0 32 32"><path d="M12 12h5.535v2.837h.079c.77-1.381 2.655-2.837 5.464-2.837C28.92 12 30 15.637 30 20.367V30h-5.769v-8.54c0-2.037-.042-4.657-3.001-4.657-3.005 0-3.463 2.218-3.463 4.509V30H12V12zM2 12h6v18H2V12zm6-5a3 3 0 1 1-6 0 3 3 0 0 1 6 0z"/></symbol><symbol id="products-close-button" viewBox="0 0 32 32"><path d="M31.974 5.272c-.013-.189-.006-.371-.039-.56a5.342 5.342 0 0 0-.254-1.094A5.35 5.35 0 0 0 28.692.453c-.176-.065-.352-.137-.527-.189-.189-.046-.352-.098-.56-.13l-.313-.046-.156-.02-.111-.006-.319-.02h-.169l-1.7.006-3.399.006C16.906.06 12.38.06 7.861.021 7.06.015 5.797.242 5.4.399c-.788.319.234.586 1.765.788 5.047.671 11.168.964 17.4 1.042l1.407.02.658.006.352.02c.098.013.156.033.241.039a3.134 3.134 0 0 1 1.791 1.087c.449.56.684 1.257.671 1.967l-.039 2.813c-.046 3.751-.085 7.502-.13 11.259l-.039 5.633-.006 1.407c.006.527-.02.82-.098 1.094a2.77 2.77 0 0 1-1.081 1.582c-.267.189-.56.332-.873.423-.156.046-.319.072-.482.098l-.247.013c-.091.006-.228 0-.339.006l-2.826.013-5.652.059c-1.869-.026-3.731-.046-5.6-.072l-7.43-.065a.279.279 0 0 1-.098-.013l-.072-.013c-.085-.006-.215-.052-.339-.078-.117-.046-.241-.078-.352-.137a2.727 2.727 0 0 1-1.576-2.377L2.4 22.631a968.424 968.424 0 0 0-.059-8.863l-.059-4.422-.052-2.207-.02-1.107-.013-.553v-.104l.006-.117c.006-.085 0-.202.013-.26s.02-.124.026-.182c.006-.059.033-.143.039-.215.013-.072.033-.143.059-.215s.039-.143.065-.208c.098-.273.247-.521.397-.749A4.1 4.1 0 0 1 3.883 2.4c.736-.469 1.354-.612 1.237-.925-.052-.124-.247-.267-.586-.326-.339-.078-.827-.065-1.4.117a4.013 4.013 0 0 0-1.791 1.185A4.447 4.447 0 0 0 .249 5.043l-.02.287-.007.332-.013.58-.033 1.159-.039 2.325c-.026 1.55-.052 3.1-.072 4.649-.046 3.1-.072 6.206-.065 9.305l.006 1.869.006.938c0 .163 0 .3.007.482.013.195.006.391.046.586.104.781.391 1.537.834 2.188a5.17 5.17 0 0 0 1.719 1.576c.169.098.352.176.527.26.182.065.365.143.554.195.195.046.365.104.593.13l.319.046c.111.013.163.006.247.013l.287.013h.234l.469-.006.931-.006 3.738-.033c4.982-.046 9.963-.098 14.945-.143l.84.033c.143.006.267.013.436.013.169-.006.339 0 .508-.02a4.883 4.883 0 0 0 1.96-.606 5.068 5.068 0 0 0 2.455-3.269c.176-.86.117-1.309.15-1.895l.039-1.687.059-3.38c.065-4.506.091-9.025.091-13.558V5.505c-.02-.065-.02-.13-.026-.234z"/><path d="M9.593 20.568c-.085.078-.052.365.02.521.143.306.436.391.736.378.983-.033 1.81-.449 2.501-1.022 1.029-.866 2.09-1.7 3.074-2.618.007.006.02.013.026.02.169.208.339.417.514.619 1.12 1.276 2.292 2.494 3.673 3.497.391.287.886.358 1.276-.091.358-.404.397-.925.098-1.315-.547-.703-1.087-1.42-1.726-2.038-.781-.755-1.608-1.465-2.429-2.181.078-.091.156-.176.228-.267.208-.169.417-.339.619-.514 1.276-1.12 2.494-2.292 3.497-3.673.287-.391.358-.886-.091-1.276-.404-.358-.925-.397-1.315-.098-.703.547-1.42 1.087-2.038 1.726-.781.807-1.511 1.654-2.247 2.501-1.289-1.836-3.087-3.217-4.565-4.884-.078-.085-.365-.052-.521.02-.306.143-.391.436-.378.736.033.983.449 1.81 1.022 2.501.873 1.035 1.713 2.103 2.637 3.093-1.706 1.27-3.028 2.963-4.61 4.369z"/></symbol><symbol id="form-name" viewBox="0 0 32 32"><path d="M16 16a5.333 5.333 0 1 0 0-10.666A5.333 5.333 0 1 0 16 16zm0 2.667c-3.561 0-10.667 1.787-10.667 5.333v1.333c0 .732.599 1.333 1.333 1.333h18.667c.732 0 1.333-.601 1.333-1.333V24c0-3.547-7.108-5.333-10.667-5.333z"/></symbol><symbol id="form-phone" viewBox="0 0 32 32"><path d="m24.882 19.774-3.268-.373a2.555 2.555 0 0 0-2.11.732l-2.368 2.368c-3.669-1.894-6.585-4.81-8.427-8.372l-.051-.108 2.382-2.377a2.552 2.552 0 0 0 .731-2.122l.001.012-.373-3.243a2.578 2.578 0 0 0-2.557-2.276H6.613c-1.454 0-2.663 1.209-2.574 2.663.683 10.987 9.47 19.76 20.444 20.443 1.452.089 2.663-1.12 2.663-2.574v-2.238a2.549 2.549 0 0 0-2.253-2.532l-.012-.001z"/></symbol><symbol id="form-email" viewBox="0 0 32 32"><path d="M26.667 5.333H5.334A2.662 2.662 0 0 0 2.682 8l-.014 16c0 1.467 1.2 2.667 2.667 2.667h21.333c1.467 0 2.667-1.2 2.667-2.667V8c0-1.467-1.2-2.667-2.667-2.667zm-.534 5.668-9.426 5.892a1.343 1.343 0 0 1-1.421-.004l.006.003L5.866 11A1.133 1.133 0 1 1 7.07 9.083l-.004-.003 8.933 5.586 8.933-5.588a1.132 1.132 0 1 1 1.204 1.916l-.005.003z"/></symbol></defs></svg>