<svg version="1.0" xmlns="http://www.w3.org/2000/svg" width="1082.667" height="1082.667" viewBox="0 0 812 812"><path d="M367.5 1.5c-44.2 4.4-93.9 19.6-141 43.2-20.6 10.4-28.3 14.8-48 27.9-26 17.3-46.8 34.6-67.1 55.7C41.3 201.5 4 297.3 4 404c0 132.6 58.8 251 160.7 323.8 40.3 28.7 86.8 49.1 98.3 43 10.4-5.6-3-24.8-35-50.3-22.9-18.3-37.6-33.8-44.1-46.7-7.3-14.4-9.5-28.4-10.9-68.3-.5-14.9-1.6-31.1-2.4-36-4-23.8-13.2-45.4-22.6-52.7-4.5-3.6-10.9-12.4-14.7-20.5-5.4-11.6-7.6-22.7-7.6-37.8.1-22.2 4.6-34.3 18-48.7 6.1-6.6 9.3-11 12.2-17.1 7.6-15.7 12.1-33.5 14.1-55.2 2.2-24.4 7.8-44.2 19-67 31-63.9 96.1-116.2 166.6-134.1 20.7-5.2 32.5-6.7 53.9-6.7 26.1 0 42.9 2.8 69.3 11.4 63.9 20.9 121.3 69.9 150.1 128 11.3 22.8 16.8 41.8 19.6 68.2 2.6 24.6 7.6 43.7 15.2 57.7 1.9 3.5 7 10.1 11.2 14.5 8.2 8.7 12.6 16.5 15.8 27.6 1.4 5 1.8 9.8 1.7 22.4-.1 14.4-.3 16.9-2.8 25-4 13.3-8.7 21.3-18.6 31.9-6 6.5-9.8 11.6-12.3 16.7-8.8 18.1-13.7 46-13.7 79.4 0 8.2-.5 19.2-1 24.3-3.8 36.3-12.7 50.1-54 84.4-25.3 21-37.2 34.2-38.7 43-.5 3.1-.2 3.8 2.1 5.3 3.4 2.2 11.2 1.6 21.1-1.6 9-3 34.1-15.6 47.3-23.9 106.9-67 186-210.4 186.2-337.6.2-147.3-90.2-289.2-230.5-362C511.2 10 436.2-5.3 367.5 1.5z"/><path d="M389.6 180.5c-25 5.5-50.4 14.4-74.1 26-29.4 14.4-44.5 26.1-44.5 34.6 0 15 67.4 42.4 120.4 49 13.8 1.7 34.9.7 51.6-2.5 48.3-9.1 98.9-30.7 104.1-44.4 2.8-7.3-10.9-19.3-37.9-33-35-17.9-80.8-32.4-101.3-32.1-4.1 0-12.3 1.1-18.3 2.4zM231.8 302.7c-2.4 2.6-5.4 11.6-7.5 22.2-1.2 6-1.7 13.8-1.8 25.6 0 16.3.1 17.2 2.5 21.5 4.5 8 15 11.7 40.5 14.2 19 1.9 269.5 1.9 288 0 26.1-2.7 35.8-6.2 40.2-14.5 2.3-4.4 3.1-16.7 2.2-33.2-1.6-27.5-7.9-37.5-23.6-37.5-9.5 0-19.2 3.3-42.8 14.3-22.5 10.5-40.6 15.6-70.5 20-20.3 2.9-75.5 3.1-96 .4-32.4-4.4-50.5-9.4-75.3-20.9-19.6-9.1-32.2-12.9-44.2-13.5-9-.5-10.2-.3-11.7 1.4zM250.4 439.1c-28.6.8-47.9 2.3-57.6 4.5-5.5 1.3-7.3 2.2-9.9 5.1-15.3 17.5 2.5 28.7 52.6 33.3 6.6.6 13.8 1.3 16 1.7 2.2.3 51.3.9 109 1.2l105 .6.6 38c.5 30 .9 39.8 2.3 46.5 4.1 20.3 9.6 30.4 15.7 28.5 9.2-2.9 13.6-20.8 14.9-60 1-31.2 2.2-36.6 9.3-43.2 7.7-7.2 15.3-9.1 47.7-12.3 38.3-3.8 61.6-9.7 70.3-17.8 1.5-1.4 2.7-3.2 2.7-3.9 0-9.4-118.9-19.1-272-22.3-51.8-1.1-68.6-1.1-106.6.1z"/><path d="M222.3 575.2c.5 44.5 1 49.8 6.4 66.1 3.2 9.6 10.5 21 16.9 26.5 17.6 15 43.3 22.3 92.9 26.4 21.7 1.7 119 1.8 141.5 0 81.6-6.4 108.6-24.4 115-76.7 1.6-12.9 1.4-45.3-.4-55C591.1 543 584 534 572 534c-8.2 0-15.1 4.8-19.2 13.2-3.5 7.2-4.6 12.9-5.7 29.4-1.7 23.5-7.2 36.5-21.2 49.9-21.2 20.3-52.9 24.3-80.9 10.3-14.9-7.5-28.6-23.2-34.8-39.9-1.1-3.1-3.2-11.2-4.6-18-4.9-23.5-8.2-30.8-16.8-36.5-10.8-7.3-24.4-8.4-104.7-8.4h-62.3l.5 41.2zM372.5 745c-28.8 1.2-42.8 4.5-47.9 11.4-3 3.9-2.8 14.2.3 21.2 8.4 19.1 40.6 30.8 84.6 30.8 19.5 0 30.7-1.2 45.5-4.9 23.7-6 38.2-15.4 42.5-27.5 4.5-12.8-1.9-21.7-19-26.3-17.6-4.7-59.4-6.6-106-4.7z"/></svg>