<svg xmlns="http://www.w3.org/2000/svg" width="400" height="400" xml:space="preserve"><path style="stroke:none;stroke-width:1;stroke-dasharray:none;stroke-linecap:butt;stroke-dashoffset:0;stroke-linejoin:miter;stroke-miterlimit:4;fill:#134563;fill-rule:nonzero;opacity:1" transform="matrix(3.13 0 0 3.13 187.48 1126.48)" d="M4-272.1c-13.2 0-23.9-10.7-23.9-23.9S-9.2-319.9 4-319.9s23.9 10.7 23.9 23.9S17.2-272.1 4-272.1zm0-45.2c-11.7 0-21.3 9.6-21.3 21.3s9.6 21.3 21.3 21.3 21.3-9.6 21.3-21.3-9.6-21.3-21.3-21.3z"/><path style="stroke:none;stroke-width:1;stroke-dasharray:none;stroke-linecap:butt;stroke-dashoffset:0;stroke-linejoin:miter;stroke-miterlimit:4;fill:#d41443;fill-rule:nonzero;opacity:1" d="m-5.95 13.7-1.8-1.9L3.95 0l-11.7-11.8 1.8-1.9L7.75 0l-13.7 13.7" transform="matrix(3.13 0 0 3.13 217.03 200)"/><path style="stroke:none;stroke-width:1;stroke-dasharray:none;stroke-linecap:butt;stroke-dashoffset:0;stroke-linejoin:miter;stroke-miterlimit:4;fill:#d41443;fill-rule:nonzero;opacity:1" d="M12 1.4h-24v-2.8h24z" transform="matrix(3.13 0 0 3.13 197.81 200)"/></svg>