<svg aria-hidden="true" style="position: absolute; width: 0; height: 0; overflow: hidden;" version="1.1" xmlns="http://www.w3.org/2000/svg" xmlns:xlink="http://www.w3.org/1999/xlink">
<defs>
<symbol id="icon-arrow" viewBox="0 0 32 32">
<path d="M16 21.985c-3.305 0-5.985-2.679-5.985-5.985s2.679-5.985 5.985-5.985 5.985 2.679 5.985 5.985-2.679 5.985-5.985 5.985zM16 10.666c-2.93 0-5.334 2.404-5.334 5.334s2.404 5.334 5.334 5.334 5.334-2.404 5.334-5.334-2.404-5.334-5.334-5.334z"></path>
<path d="M15.873 19.43l-0.451-0.476 2.93-2.955-2.93-2.955 0.451-0.476 3.43 3.43-3.43 3.43z"></path>
<path d="M18.83 16.351h-6.010v-0.701h6.010z"></path>
</symbol>
<symbol id="icon-cust-points" viewBox="0 0 256 32">
<path d="M144 16c0 8.837-7.163 16-16 16s-16-7.163-16-16c0-8.837 7.163-16 16-16s16 7.163 16 16z"></path>
<path d="M32 16c0 8.837-7.163 16-16 16s-16-7.163-16-16c0-8.837 7.163-16 16-16s16 7.163 16 16z"></path>
<path d="M256 16c0 8.837-7.163 16-16 16s-16-7.163-16-16c0-8.837 7.163-16 16-16s16 7.163 16 16z"></path>
</symbol>
<symbol id="icon-cust-quotes" viewBox="0 0 49 32">
<path d="M35.781 0c2.155 0 4.191 0.52 6.107 1.561s3.472 2.537 4.67 4.488c1.15 1.951 1.725 4.25 1.725 6.894s-0.718 5.225-2.155 7.74c-0.48 0.91-1.342 2.081-2.587 3.512-1.293 1.43-2.49 2.666-3.592 3.707l-4.526 4.098-3.234-4.813c2.297-1.29 4.262-2.848 5.95-4.668l0.014-0.015c1.724-1.821 2.586-3.49 2.586-5.008 0-0.781-0.192-1.41-0.575-1.886-1.676 1.084-3.544 1.626-5.604 1.626-1.485 0-2.898-0.412-4.239-1.236-1.389-0.781-2.49-1.821-3.305-3.122-0.862-1.258-1.294-2.558-1.294-3.902 0-1.518 0.503-2.97 1.509-4.358 0.958-1.387 2.227-2.514 3.808-3.382 1.533-0.824 3.114-1.236 4.742-1.236zM9.987 0c2.155 0 4.191 0.52 6.107 1.561s3.472 2.536 4.67 4.488c1.15 1.951 1.725 4.25 1.725 6.894 0 1.864-0.264 3.534-0.79 5.008-0.527 1.518-1.437 3.1-2.73 4.748-1.246 1.561-2.419 2.862-3.52 3.902-1.102 1.084-3.018 2.883-5.749 5.398l-3.233-4.813c2.296-1.29 4.262-2.848 5.949-4.668l0.014-0.015c1.725-1.821 2.586-3.49 2.586-5.008 0-0.781-0.191-1.41-0.574-1.886-1.677 1.084-3.544 1.626-5.604 1.626-1.485 0-2.898-0.412-4.24-1.236-1.388-0.781-2.49-1.821-3.304-3.122-0.862-1.258-1.294-2.558-1.294-3.902 0-1.518 0.479-2.97 1.437-4.358s2.227-2.514 3.808-3.382c1.533-0.824 3.114-1.236 4.742-1.236z"></path>
</symbol>
<symbol id="icon-footer-facebook" viewBox="0 0 16 32">
<path d="M14.143 15.971h-4.033v14.865h-6.112v-14.865h-2.906v-5.222h2.906v-3.382c0-2.417 1.142-6.204 6.167-6.204l4.527 0.019v5.072h-3.284c-0.538 0-1.297 0.272-1.297 1.425v3.073h4.567l-0.534 5.219z"></path>
</symbol>
<symbol id="icon-footer-github" viewBox="0 0 32 32">
<path d="M16 0c-8.789 0-16 7.211-16 16 0 7.499 5.262 14.312 12.25 16v-5.293c-0.276 0.070-0.593 0.109-0.919 0.109-0.398 0-0.781-0.059-1.143-0.169l0.028 0.007c-0.946-0.278-1.714-0.909-2.285-1.869-0.363-0.613-1.008-1.28-1.68-1.23l-0.165-1.867c1.454-0.125 2.71 0.886 3.456 2.139 0.333 0.558 0.715 0.885 1.205 1.029 0.472 0.141 0.981 0.074 1.573-0.136 0.149-1.186 0.693-1.629 1.104-2.256-4.168-0.621-5.829-2.832-6.488-4.576-0.874-2.318-0.405-5.213 1.139-7.043 0.030-0.035 0.085-0.128 0.064-0.192-0.709-2.141 0.154-3.91 0.186-4.098 0.818 0.24 0.95-0.243 3.552 1.336l0.448 0.27c0.189 0.112 0.128 0.048 0.317 0.032 1.003-0.282 2.157-0.452 3.349-0.469l0.010-0c1.136 0.014 2.272 0.176 3.403 0.483l0.146 0.016c-0.013-0.003 0.040-0.010 0.128-0.062 3.248-1.968 3.131-1.325 4.003-1.608 0.032 0.189 0.882 1.987 0.182 4.099-0.096 0.291 2.816 2.957 1.202 7.235-0.659 1.744-2.32 3.957-6.486 4.578 0.534 0.816 1.176 1.248 1.173 2.928v6.606c6.986-1.688 12.25-8.501 12.25-16 0-8.789-7.211-16-16-16z"></path>
</symbol>
<symbol id="icon-footer-telegram" viewBox="0 0 44 32">
<path d="M17.342 21.048l-0.674 8.86c0.966 0 1.384-0.388 1.886-0.852l4.526-4.040 9.38 6.414c1.72 0.894 2.934 0.422 3.398-1.478l6.158-26.932c0.548-2.374-0.92-3.302-2.594-2.72l-36.194 12.934c-2.47 0.896-2.434 2.18-0.42 2.766l9.252 2.684 21.494-12.552c1.012-0.626 1.932-0.28 1.176 0.346l-17.39 14.57z"></path>
</symbol>
<symbol id="icon-header-arrow-btn" viewBox="0 0 22 32">
<path stroke-linejoin="round" stroke-linecap="round" stroke-miterlimit="4" stroke-width="6.4" d="M5.574 3.2l12.88 12.8-12.88 12.8"></path>
</symbol>
<symbol id="icon-header-logo" viewBox="0 0 127 32">
<path d="M31.36 16.32c0 8.66-6.877 15.68-15.36 15.68s-15.36-7.020-15.36-15.68c0-8.66 6.877-15.68 15.36-15.68s15.36 7.020 15.36 15.68z"></path>
<path d="M11.849 0.561c-7.405 2.243-11.849 8.074-11.849 15.442 0 6.022 3.091 11.277 8.179 13.904 2.64 1.345 3.027 0.384 0.579-1.474-1.738-1.409-2.061-2.050-2.061-4.421 0-1.666-0.386-3.011-0.966-3.524-1.158-0.961-1.288-3.46-0.128-4.357 0.45-0.384 0.901-1.666 0.965-2.819 0.323-4.228 4.895-8.201 9.467-8.201s9.144 3.972 9.466 8.201c0.064 1.153 0.515 2.435 0.966 2.819 1.158 0.897 1.030 3.396-0.129 4.357-0.579 0.513-0.966 1.858-0.966 3.524 0 2.371-0.321 3.012-2.060 4.421-2.705 2.115-1.932 2.883 1.094 1.025 4.251-2.627 7.406-8.33 7.406-13.391 0-10.124-10.561-18.325-19.964-15.506z"></path>
<path d="M12.687 7.994c-1.16 0.513-2.125 1.154-2.125 1.538 0 0.705 3.478 1.987 5.474 1.987s5.474-1.281 5.474-1.987c0-0.768-3.993-2.499-5.603-2.499-0.644 0.064-2.125 0.448-3.22 0.961zM45.851 11.326c-0.966 0.256-1.158 1.089-1.158 5.702v5.382h4.572l-0.193-5.574c-0.193-5.83-0.451-6.28-3.22-5.51zM53.386 11.646c-2.125 1.154-2.898 2.563-2.898 5.318 0 3.78 2.061 5.574 5.86 5.318 2.576-0.192 2.833-0.385 3.027-1.987s0.064-1.73-1.932-1.602c-2.061 0.192-2.125 0.064-2.125-2.051s0.129-2.243 1.997-2.050c1.545 0.128 2.125-0.128 2.382-1.089 0.129-0.641 0-1.538-0.387-1.923-0.901-0.897-4.25-0.897-5.924 0.064zM61.050 11.71c-0.194 0.513-0.258 3.012-0.129 5.638l0.193 4.742h4.186c3.864 0 4.186-0.128 4.379-1.474 0.193-1.217-0.064-1.409-2.060-1.409-1.288 0-2.319-0.32-2.319-0.641 0-0.385 0.902-0.641 1.932-0.641 1.481 0 1.932-0.256 1.932-1.281s-0.451-1.281-1.932-1.281c-1.030 0-1.932-0.32-1.932-0.641 0-0.385 0.837-0.641 1.868-0.641 1.804 0 3.027-1.409 2.254-2.627-0.58-0.961-7.985-0.705-8.371 0.256zM73.993 11.518c-2.125 0.833-2.962 2.307-3.027 4.998-0.065 4.613 1.803 6.215 6.633 5.766 1.868-0.128 2.189-0.448 2.189-1.794 0-1.409-0.257-1.602-2.061-1.409-1.546 0.128-2.125-0.064-2.447-1.089-0.58-1.987 0.644-3.588 2.705-3.588 1.224 0 1.868-0.384 1.996-1.217 0.451-2.051-2.833-3.011-5.989-1.666zM81.914 11.262c-0.323 0.256-0.515 2.883-0.515 5.83v5.382l2.060-0.192c1.61-0.128 2.19-0.577 2.512-1.795l0.386-1.602 0.515 1.73c0.387 1.474 0.837 1.795 2.512 1.795 2.769 0 3.091-0.449 1.932-2.691-0.708-1.41-0.837-2.115-0.322-2.627 0.837-0.833 0.902-3.652 0.129-4.87-0.644-1.025-8.371-1.858-9.208-0.961zM87.194 14.722c0 0.705-0.257 1.281-0.644 1.281-0.322 0-0.644-0.576-0.644-1.281s0.322-1.282 0.644-1.282c0.387 0 0.644 0.577 0.644 1.282zM93.441 11.326c-0.258 0.192-0.451 2.819-0.451 5.766v5.318h4.186c4.057 0 4.186-0.064 4.186-1.602 0-1.346-0.322-1.602-1.932-1.602-1.030 0-1.932-0.32-1.932-0.641 0-0.385 0.708-0.641 1.61-0.641 1.159 0 1.61-0.321 1.61-1.282s-0.451-1.281-1.61-1.281c-0.902 0-1.61-0.32-1.61-0.641 0-0.384 0.902-0.641 1.932-0.641 1.61 0 1.932-0.256 1.932-1.602 0-1.538-0.193-1.602-3.735-1.602-2.061 0-3.992 0.192-4.186 0.448zM106.45 11.262c-1.16 0.32-4.122 8.842-3.542 10.252 0.515 1.281 3.413 1.153 4.186-0.192 0.579-1.089 0.644-1.089 1.803 0 1.482 1.281 4.701 1.474 4.701 0.256 0-0.384-0.644-2.947-1.482-5.574-1.288-4.228-1.674-4.805-3.027-4.933-0.902 0-2.061 0.064-2.64 0.192zM108.253 17.092c-0.193 0.641-0.322 0.256-0.322-0.769 0-1.089 0.129-1.538 0.322-1.153 0.129 0.448 0.129 1.345 0 1.922zM115.723 11.326c-0.58 0.192-0.837 1.986-0.837 5.702v5.382h1.868c1.61 0 1.932-0.321 2.189-1.795 0.257-1.666 0.257-1.666 0.772-0.32 0.258 0.833 0.902 1.474 1.352 1.474 0.515 0 1.224-0.641 1.546-1.474 0.515-1.346 0.58-1.346 0.58 0.384 0.065 1.602 0.257 1.795 2.061 1.602l1.996-0.192 0.065-5.318c0.129-4.933 0.064-5.318-1.288-5.638-2.061-0.512-3.799 0.705-4.379 3.076l-0.451 2.115-0.708-2.243c-0.902-3.012-2.254-3.78-4.765-2.755zM9.016 11.967c-0.193 0.256-0.387 1.089-0.387 1.922 0 1.474 0.064 1.474 7.406 1.474 7.341 0 7.405 0 7.405-1.474 0-2.179-0.579-2.435-2.64-1.409-2.319 1.217-7.213 1.217-9.531 0-1.030-0.513-1.997-0.705-2.254-0.513zM7.148 17.669c-1.030 1.089 0.708 1.538 5.731 1.538h5.409v2.243c0 1.217 0.322 2.243 0.644 2.243 0.386 0 0.644-0.961 0.644-2.179 0-2.115 0.129-2.243 2.576-2.435 1.416-0.128 2.576-0.512 2.576-0.832 0-0.705-16.872-1.282-17.581-0.577z"></path>
<path d="M8.629 23.308c0 3.524 1.224 4.229 7.406 4.229s7.405-0.705 7.405-4.229c0-1.538-0.322-2.179-0.966-2.179-0.579 0-0.965 0.577-0.965 1.538 0 3.588-4.895 3.908-5.603 0.384-0.322-1.858-0.515-1.922-3.799-1.922h-3.478v2.179zM12.622 30.548c0.387 2.051 6.955 1.859 6.955-0.128 0-0.705-0.837-0.961-3.606-0.961-3.027 0-3.542 0.192-3.348 1.089z"></path>
</symbol>
<symbol id="icon-header-menu" viewBox="0 0 46 32">
<path stroke-linejoin="miter" stroke-linecap="butt" stroke-miterlimit="4" stroke-width="2.2857" d="M0 2.286h45.714M0 16h45.714M0 29.714h45.714"></path>
</symbol>
<symbol id="icon-menu-close" viewBox="0 0 32 32">
<path stroke-linejoin="miter" stroke-linecap="butt" stroke-miterlimit="4" stroke-width="2" d="M2.52 2l26.96 28M2 29.48l28-26.96"></path>
</symbol>
<symbol id="icon-prod-points" viewBox="0 0 139 32">
<path d="M85.333 16c0 8.837-7.163 16-16 16s-16-7.163-16-16c0-8.837 7.163-16 16-16s16 7.163 16 16z"></path>
<path d="M32 16c0 8.837-7.163 16-16 16s-16-7.163-16-16c0-8.837 7.163-16 16-16s16 7.163 16 16z"></path>
<path d="M138.667 16c0 8.837-7.163 16-16 16s-16-7.163-16-16c0-8.837 7.163-16 16-16s16 7.163 16 16z"></path>
</symbol>
<symbol id="icon-menu" viewBox="0 0 48 32">
<path d="M0 5.333v-5.333h48v5.333h-48zM0 18.667h48v-5.333h-48v5.333zM0 32h48v-5.333h-48v5.333z"></path>
</symbol>
<symbol id="icon-arrow-common" viewBox="0 0 32 32">
<path d="M18.381 16l-7.944 7.938c-0.588 0.587-0.588 1.538 0 2.119 0.588 0.587 1.537 0.581 2.125 0l9-8.994c0.569-0.569 0.581-1.481 0.044-2.069l-9.037-9.056c-0.294-0.294-0.681-0.438-1.063-0.438s-0.769 0.144-1.063 0.438c-0.588 0.588-0.588 1.537 0 2.119l7.938 7.944z"></path>
</symbol>
<symbol id="icon-close" viewBox="0 0 32 32">
<path d="M31.439 3.166l-3.166-3.166-12.553 12.553-12.553-12.553-3.166 3.166 12.553 12.553-12.553 12.553 3.166 3.166 12.553-12.553 12.553 12.553 3.166-3.166-12.553-12.553 12.553-12.553z"></path>
</symbol>
<symbol id="icon-arrow-products" viewBox="0 0 32 32">
<path d="M19.414 27.414l10-10c0.781-0.781 0.781-2.047 0-2.828l-10-10c-0.781-0.781-2.047-0.781-2.828 0s-0.781 2.047 0 2.828l6.586 6.586h-19.172c-1.105 0-2 0.895-2 2s0.895 2 2 2h19.172l-6.586 6.586c-0.39 0.39-0.586 0.902-0.586 1.414s0.195 1.024 0.586 1.414c0.781 0.781 2.047 0.781 2.828 0z"></path>
</symbol>
 <symbol id="instagram" viewBox="0 0 32 32">
      <path d="M16 2.881c4.275 0 4.781.019 6.462.094 1.563.069 2.406.331 2.969.55a4.952 4.952 0 0 1 1.837 1.194 5.015 5.015 0 0 1 1.2 1.838c.219.563.481 1.412.55 2.969.075 1.688.094 2.194.094 6.463s-.019 4.781-.094 6.463c-.069 1.563-.331 2.406-.55 2.969a4.94 4.94 0 0 1-1.194 1.837 5.02 5.02 0 0 1-1.837 1.2c-.563.219-1.413.481-2.969.55-1.688.075-2.194.094-6.463.094s-4.781-.019-6.463-.094c-1.563-.069-2.406-.331-2.969-.55a4.952 4.952 0 0 1-1.838-1.194 5.02 5.02 0 0 1-1.2-1.837c-.219-.563-.481-1.413-.55-2.969-.075-1.688-.094-2.194-.094-6.463s.019-4.781.094-6.463c.069-1.563.331-2.406.55-2.969a4.964 4.964 0 0 1 1.194-1.838 5.015 5.015 0 0 1 1.838-1.2c.563-.219 1.412-.481 2.969-.55 1.681-.075 2.188-.094 6.463-.094zM16 0c-4.344 0-4.887.019-6.594.094-1.7.075-2.869.35-3.881.744-1.056.412-1.95.956-2.837 1.85a7.833 7.833 0 0 0-1.85 2.831C.444 6.538.169 7.7.094 9.4.019 11.113 0 11.656 0 16s.019 4.887.094 6.594c.075 1.7.35 2.869.744 3.881.413 1.056.956 1.95 1.85 2.837a7.82 7.82 0 0 0 2.831 1.844c1.019.394 2.181.669 3.881.744 1.706.075 2.25.094 6.594.094s4.888-.019 6.594-.094c1.7-.075 2.869-.35 3.881-.744 1.05-.406 1.944-.956 2.831-1.844s1.438-1.781 1.844-2.831c.394-1.019.669-2.181.744-3.881.075-1.706.094-2.25.094-6.594s-.019-4.887-.094-6.594c-.075-1.7-.35-2.869-.744-3.881a7.506 7.506 0 0 0-1.831-2.844A7.82 7.82 0 0 0 26.482.843C25.463.449 24.301.174 22.601.099c-1.712-.081-2.256-.1-6.6-.1z"/>
      <path d="M16 7.781c-4.537 0-8.219 3.681-8.219 8.219s3.681 8.219 8.219 8.219 8.219-3.681 8.219-8.219A8.221 8.221 0 0 0 16 7.781zm0 13.55a5.331 5.331 0 1 1 0-10.663 5.331 5.331 0 0 1 0 10.663zM26.462 7.456a1.919 1.919 0 1 1-3.838 0 1.919 1.919 0 0 1 3.838 0z"/>
    </symbol>
    <symbol id="linkedin" viewBox="0 0 32 32">
      <path d="M12 12h5.535v2.837h.079c.77-1.381 2.655-2.837 5.464-2.837C28.92 12 30 15.637 30 20.367V30h-5.769v-8.54c0-2.037-.042-4.657-3.001-4.657-3.005 0-3.463 2.218-3.463 4.509V30H12V12zM2 12h6v18H2V12zM8 7a3 3 0 1 1-6 0 3 3 0 0 1 6 0z"/>
    </symbol>
<symbol id="products-close-button" viewBox="0 0 32 32">
<path d="M31.974 5.272c-0.013-0.189-0.006-0.371-0.039-0.56-0.046-0.371-0.13-0.736-0.254-1.094-0.495-1.42-1.602-2.598-2.989-3.165-0.176-0.065-0.352-0.137-0.527-0.189-0.189-0.046-0.352-0.098-0.56-0.13l-0.313-0.046-0.156-0.020-0.111-0.006-0.319-0.020h-0.169l-1.7 0.006-3.399 0.006c-4.532 0.006-9.058 0.006-13.577-0.033-0.801-0.006-2.064 0.221-2.461 0.378-0.788 0.319 0.234 0.586 1.765 0.788 5.047 0.671 11.168 0.964 17.4 1.042l1.407 0.020 0.658 0.006 0.352 0.020c0.098 0.013 0.156 0.033 0.241 0.039 0.684 0.137 1.348 0.534 1.791 1.087 0.449 0.56 0.684 1.257 0.671 1.967l-0.039 2.813c-0.046 3.751-0.085 7.502-0.13 11.259l-0.039 5.633-0.006 1.407c0.006 0.527-0.020 0.82-0.098 1.094-0.156 0.632-0.547 1.205-1.081 1.582-0.267 0.189-0.56 0.332-0.873 0.423-0.156 0.046-0.319 0.072-0.482 0.098l-0.247 0.013c-0.091 0.006-0.228 0-0.339 0.006l-2.826 0.013-5.652 0.059c-1.869-0.026-3.731-0.046-5.6-0.072l-7.43-0.065c-0.052 0-0.078-0.006-0.098-0.013l-0.072-0.013c-0.085-0.006-0.215-0.052-0.339-0.078-0.117-0.046-0.241-0.078-0.352-0.137-0.456-0.208-0.847-0.553-1.127-0.97-0.273-0.423-0.436-0.905-0.449-1.407l-0.006-4.382c-0.006-2.956-0.026-5.913-0.059-8.863l-0.059-4.422-0.052-2.207-0.020-1.107-0.013-0.553v-0.104l0.006-0.117c0.006-0.085 0-0.202 0.013-0.26s0.020-0.124 0.026-0.182c0.006-0.059 0.033-0.143 0.039-0.215 0.013-0.072 0.033-0.143 0.059-0.215s0.039-0.143 0.065-0.208c0.098-0.273 0.247-0.521 0.397-0.749 0.319-0.443 0.71-0.788 1.081-1.029 0.736-0.469 1.354-0.612 1.237-0.925-0.052-0.124-0.247-0.267-0.586-0.326-0.339-0.078-0.827-0.065-1.4 0.117-0.567 0.182-1.237 0.547-1.791 1.185-0.56 0.632-1.003 1.511-1.094 2.592l-0.020 0.287-0.007 0.332-0.013 0.58-0.033 1.159-0.039 2.325c-0.026 1.55-0.052 3.1-0.072 4.649-0.046 3.1-0.072 6.206-0.065 9.305l0.006 1.869 0.006 0.938c0 0.163 0 0.3 0.007 0.482 0.013 0.195 0.006 0.391 0.046 0.586 0.104 0.781 0.391 1.537 0.834 2.188 0.443 0.645 1.035 1.192 1.719 1.576 0.169 0.098 0.352 0.176 0.527 0.26 0.182 0.065 0.365 0.143 0.554 0.195 0.195 0.046 0.365 0.104 0.593 0.13l0.319 0.046c0.111 0.013 0.163 0.006 0.247 0.013l0.287 0.013h0.234l0.469-0.006 0.931-0.006 3.738-0.033c4.982-0.046 9.963-0.098 14.945-0.143l0.84 0.033c0.143 0.006 0.267 0.013 0.436 0.013 0.169-0.006 0.339 0 0.508-0.020 0.684-0.059 1.354-0.267 1.96-0.606 1.211-0.671 2.142-1.882 2.455-3.269 0.176-0.86 0.117-1.309 0.15-1.895l0.039-1.687 0.059-3.38c0.065-4.506 0.091-9.025 0.091-13.558v-1.914c-0.020-0.065-0.020-0.13-0.026-0.234z"></path>
<path d="M9.593 20.568c-0.085 0.078-0.052 0.365 0.020 0.521 0.143 0.306 0.436 0.391 0.736 0.378 0.983-0.033 1.81-0.449 2.501-1.022 1.029-0.866 2.090-1.7 3.074-2.618 0.007 0.006 0.020 0.013 0.026 0.020 0.169 0.208 0.339 0.417 0.514 0.619 1.12 1.276 2.292 2.494 3.673 3.497 0.391 0.287 0.886 0.358 1.276-0.091 0.358-0.404 0.397-0.925 0.098-1.315-0.547-0.703-1.087-1.42-1.726-2.038-0.781-0.755-1.608-1.465-2.429-2.181 0.078-0.091 0.156-0.176 0.228-0.267 0.208-0.169 0.417-0.339 0.619-0.514 1.276-1.12 2.494-2.292 3.497-3.673 0.287-0.391 0.358-0.886-0.091-1.276-0.404-0.358-0.925-0.397-1.315-0.098-0.703 0.547-1.42 1.087-2.038 1.726-0.781 0.807-1.511 1.654-2.247 2.501-1.289-1.836-3.087-3.217-4.565-4.884-0.078-0.085-0.365-0.052-0.521 0.020-0.306 0.143-0.391 0.436-0.378 0.736 0.033 0.983 0.449 1.81 1.022 2.501 0.873 1.035 1.713 2.103 2.637 3.093-1.706 1.27-3.028 2.963-4.61 4.369z"></path>
</symbol>
<symbol id="form-name" viewBox="0 0 32 32">
<path d="M16 16c2.946 0 5.333-2.388 5.333-5.333s-2.388-5.333-5.333-5.333v0c-2.946 0-5.333 2.388-5.333 5.333s2.388 5.333 5.333 5.333v0zM16 18.667c-3.561 0-10.667 1.787-10.667 5.333v1.333c0 0.732 0.599 1.333 1.333 1.333h18.667c0.732 0 1.333-0.601 1.333-1.333v-1.333c0-3.547-7.108-5.333-10.667-5.333z"></path>
</symbol>
<symbol id="form-phone" viewBox="0 0 32 32">
<path d="M24.882 19.774l-3.268-0.373c-0.090-0.011-0.194-0.018-0.299-0.018-0.707 0-1.348 0.287-1.811 0.75l-2.368 2.368c-3.669-1.894-6.585-4.81-8.427-8.372l-0.051-0.108 2.382-2.377c0.463-0.463 0.75-1.103 0.75-1.81 0-0.106-0.006-0.21-0.019-0.312l0.001 0.012-0.373-3.243c-0.155-1.287-1.24-2.276-2.557-2.276-0.001 0-0.002 0-0.003 0h-2.226c-1.454 0-2.663 1.209-2.574 2.663 0.683 10.987 9.47 19.76 20.444 20.443 1.452 0.089 2.663-1.12 2.663-2.574v-2.226c0-0.004 0-0.008 0-0.012 0-1.308-0.985-2.386-2.253-2.532l-0.012-0.001z"></path>
</symbol>
<symbol id="form-email" viewBox="0 0 32 32">
<path d="M26.667 5.333h-21.333c-1.467 0-2.652 1.2-2.652 2.667l-0.014 16c0 1.467 1.2 2.667 2.667 2.667h21.333c1.467 0 2.667-1.2 2.667-2.667v-16c0-1.467-1.2-2.667-2.667-2.667zM26.133 11.001l-9.426 5.892c-0.201 0.126-0.446 0.2-0.708 0.2s-0.506-0.075-0.713-0.204l0.006 0.003-9.426-5.892c-0.336-0.201-0.557-0.562-0.557-0.975 0-0.625 0.507-1.132 1.132-1.132 0.233 0 0.449 0.070 0.629 0.19l-0.004-0.003 8.933 5.586 8.933-5.588c0.176-0.118 0.392-0.188 0.624-0.188 0.625 0 1.132 0.507 1.132 1.132 0 0.413-0.221 0.775-0.552 0.972l-0.005 0.003z"></path>
</symbol>
</defs>
</svg>
