<?xml version="1.0" standalone="no"?>
<!DOCTYPE svg PUBLIC "-//W3C//DTD SVG 20010904//EN"
 "http://www.w3.org/TR/2001/REC-SVG-20010904/DTD/svg10.dtd">
<svg version="1.0" xmlns="http://www.w3.org/2000/svg"
 width="812.000000pt" height="812.000000pt" viewBox="0 0 812.000000 812.000000"
 preserveAspectRatio="xMidYMid meet">
<metadata>
Created by potrace 1.14, written by Peter Selinger 2001-2017
</metadata>
<g transform="translate(0.000000,812.000000) scale(0.100000,-0.100000)"
fill="#000000" stroke="none">
<path d="M3675 8105 c-442 -44 -939 -196 -1410 -432 -206 -104 -283 -148 -480
-279 -260 -173 -468 -346 -671 -557 -701 -732 -1074 -1690 -1074 -2757 0
-1326 588 -2510 1607 -3238 403 -287 868 -491 983 -430 104 56 -30 248 -350
503 -229 183 -376 338 -441 467 -73 144 -95 284 -109 683 -5 149 -16 311 -24
360 -40 238 -132 454 -226 527 -45 36 -109 124 -147 205 -54 116 -76 227 -76
378 1 222 46 343 180 487 61 66 93 110 122 171 76 157 121 335 141 552 22 244
78 442 190 670 310 639 961 1162 1666 1341 207 52 325 67 539 67 261 0 429
-28 693 -114 639 -209 1213 -699 1501 -1280 113 -228 168 -418 196 -682 26
-246 76 -437 152 -577 19 -35 70 -101 112 -145 82 -87 126 -165 158 -276 14
-50 18 -98 17 -224 -1 -144 -3 -169 -28 -250 -40 -133 -87 -213 -186 -319 -60
-65 -98 -116 -123 -167 -88 -181 -137 -460 -137 -794 0 -82 -5 -192 -10 -243
-38 -363 -127 -501 -540 -844 -253 -210 -372 -342 -387 -430 -5 -31 -2 -38 21
-53 34 -22 112 -16 211 16 90 30 341 156 473 239 1069 670 1860 2104 1862
3376 2 1473 -902 2892 -2305 3620 -663 344 -1413 497 -2100 429z"/>
<path d="M3896 6315 c-250 -55 -504 -144 -741 -260 -294 -144 -445 -261 -445
-346 0 -150 674 -424 1204 -490 138 -17 349 -7 516 25 483 91 989 307 1041
444 28 73 -109 193 -379 330 -350 179 -808 324 -1013 321 -41 0 -123 -11 -183
-24z"/>
<path d="M2318 5093 c-24 -26 -54 -116 -75 -222 -12 -60 -17 -138 -18 -256 0
-163 1 -172 25 -215 45 -80 150 -117 405 -142 190 -19 2695 -19 2880 0 261 27
358 62 402 145 23 44 31 167 22 332 -16 275 -79 375 -236 375 -95 0 -192 -33
-428 -143 -225 -105 -406 -156 -705 -200 -203 -29 -755 -31 -960 -4 -324 44
-505 94 -753 209 -196 91 -322 129 -442 135 -90 5 -102 3 -117 -14z"/>
<path d="M2504 3729 c-286 -8 -479 -23 -576 -45 -55 -13 -73 -22 -99 -51 -153
-175 25 -287 526 -333 66 -6 138 -13 160 -17 22 -3 513 -9 1090 -12 l1050 -6
6 -380 c5 -300 9 -398 23 -465 41 -203 96 -304 157 -285 92 29 136 208 149
600 10 312 22 366 93 432 77 72 153 91 477 123 383 38 616 97 703 178 15 14
27 32 27 39 0 94 -1189 191 -2720 223 -518 11 -686 11 -1066 -1z"/>
<path d="M2223 2368 c5 -445 10 -498 64 -661 32 -96 105 -210 169 -265 176
-150 433 -223 929 -264 217 -17 1190 -18 1415 0 816 64 1086 244 1150 767 16
129 14 453 -4 550 -35 195 -106 285 -226 285 -82 0 -151 -48 -192 -132 -35
-72 -46 -129 -57 -294 -17 -235 -72 -365 -212 -499 -212 -203 -529 -243 -809
-103 -149 75 -286 232 -348 399 -11 31 -32 112 -46 180 -49 235 -82 308 -168
365 -108 73 -244 84 -1047 84 l-623 0 5 -412z"/>
<path d="M3725 670 c-288 -12 -428 -45 -479 -114 -30 -39 -28 -142 3 -212 84
-191 406 -308 846 -308 195 0 307 12 455 49 237 60 382 154 425 275 45 128
-19 217 -190 263 -176 47 -594 66 -1060 47z"/>
</g>
</svg>
